<?xml version="1.0" encoding="utf-8"?><svg xml:space="preserve" viewBox="0 0 100 100" y="0" x="0" xmlns="http://www.w3.org/2000/svg" id="Layer_1" version="1.1" width="200px" height="200px" xmlns:xlink="http://www.w3.org/1999/xlink" style="width:100%;height:100%;background-size:initial;background-repeat-y:initial;background-repeat-x:initial;background-position-y:initial;background-position-x:initial;background-origin:initial;background-color:initial;background-clip:initial;background-attachment:initial;animation-play-state:paused" ><g class="ldl-scale" style="transform-origin:50% 50%;transform:rotate(0deg) scale(0.8, 0.8);animation-play-state:paused" ><circle fill="#cccccb" r="4.8" cy="32.2" cx="49.5" style="fill:rgb(204, 204, 203);animation-play-state:paused" ></circle>
<path fill="#cccccb" d="M49.5 33.2c-18.4 0-33.5 14.1-34.3 31.9h68.6C83 47.4 67.9 33.2 49.5 33.2z" style="fill:rgb(204, 204, 203);animation-play-state:paused" ></path>
<path fill="#b3b4b4" d="M90.8 64H9.2c-1.3 0-2.1 1.5-1.5 2.7l2.2 4.7c.3.6.9 1 1.5 1h77.3c.7 0 1.2-.4 1.5-1l2.2-4.7c.5-1.2-.3-2.7-1.6-2.7z" style="fill:rgb(179, 180, 180);animation-play-state:paused" ></path>
<path stroke-miterlimit="10" fill="none" stroke-linecap="round" stroke-width="4" stroke="#fff" d="M27.8 49.8c-.6.8-1.2 1.6-1.8 2.5" style="stroke:rgb(39, 45, 47);animation-play-state:paused" ></path>
<path stroke-miterlimit="10" fill="none" stroke-linecap="round" stroke-width="4" stroke="#fff" d="M44.1 40c-4.2.8-8.1 2.6-11.4 5" style="stroke:rgb(39, 45, 47);animation-play-state:paused" ></path>
<path opacity=".2" d="M49.5 33.2c1.5 0 3 .1 4.5.3.1-.4.2-.8.2-1.3 0-2.6-2.1-4.8-4.8-4.8h-.5v5.7c.3.1.4.1.6.1z" style="animation-play-state:paused" ></path>
<path opacity=".2" d="M54 33.5c-1.5-.2-3-.3-4.5-.3H49V64h34.8C82.5 48.3 70 35.6 54 33.5z" style="animation-play-state:paused" ></path>
<path opacity=".2" d="M90.8 64H49v8.5h39.6c.7 0 1.2-.4 1.5-1l2.2-4.7c.6-1.3-.2-2.8-1.5-2.8z" style="animation-play-state:paused" ></path>
<metadata xmlns:d="https://loading.io/stock/" style="animation-play-state:paused" ><d:name style="animation-play-state:paused" >cover plate</d:name>


<d:tags style="animation-play-state:paused" >cover plate,dinner plate,dish,side plate,food,cuisine,gourmet</d:tags>


<d:license style="animation-play-state:paused" >by</d:license>


<d:slug style="animation-play-state:paused" >omsif</d:slug></metadata></g><!-- generated by https://loading.io/ --></svg>